<svg width="16" height="20" viewBox="0 0 16 20" fill="none" xmlns="http://www.w3.org/2000/svg">
<path d="M8.00002 0C5.38002 0 3.25002 2.13 3.25002 4.75C3.25002 7.32 5.26002 9.4 7.88002 9.49C7.96002 9.48 8.04002 9.48 8.10002 9.49H8.17002C9.39938 9.44898 10.5646 8.93148 11.4193 8.04691C12.274 7.16234 12.7512 5.98004 12.75 4.75C12.75 2.13 10.62 0 8.00002 0ZM13.08 12.149C10.29 10.289 5.74002 10.289 2.93002 12.149C1.66002 12.999 0.960022 14.149 0.960022 15.379C0.960022 16.609 1.66002 17.749 2.92002 18.589C4.32002 19.529 6.16002 19.999 8.00002 19.999C9.84002 19.999 11.68 19.529 13.08 18.589C14.34 17.739 15.04 16.599 15.04 15.359C15.03 14.129 14.34 12.989 13.08 12.149Z" fill="black"/>
</svg>
